PathFileType	4	(X/Y/Z)	 3.0Hz3min.trc
DataRate	CameraRate	NumFrames	NumMarkers	Units	OrigDataRate	OrigDataStartFrame	OrigNumFrames
200	200	8	35	m	200	126	1000
Frame#	Time	C7			LSH			RSH			MAN			RASI			LASI			HIPR			HIPL			RPSI			LPSI			COX			RTHI1			RTHI2			RTHI3			RTHI4			RSHA1			RSHA2			RSHA3			RSHA4			RHEEL			RMET5			RMET1			RTOE			LTHI1			LTHI2			LTHI3			LTHI4			LSHA1			LSHA2			LSHA3			LSHA4			LHEEL			LMET5			LMET1			LTOE			
		X1	Y1	Z1	X2	Y2	Z2	X3	Y3	Z3	X4	Y4	Z4	X5	Y5	Z5	X6	Y6	Z6	X7	Y7	Z7	X8	Y8	Z8	X9	Y9	Z9	X10	Y10	Z10	X11	Y11	Z11	X12	Y12	Z12	X13	Y13	Z13	X14	Y14	Z14	X15	Y15	Z15	X16	Y16	Z16	X17	Y17	Z17	X18	Y18	Z18	X19	Y19	Z19	X20	Y20	Z20	X21	Y21	Z21	X22	Y22	Z22	X23	Y23	Z23	X24	Y24	Z24	X25	Y25	Z25	X26	Y26	Z26	X27	Y27	Z27	X28	Y28	Z28	X29	Y29	Z29	X30	Y30	Z30	X31	Y31	Z31	X32	Y32	Z32	X33	Y33	Z33	X34	Y34	Z34	X35	Y35	Z35	
126	0.6300	-0.259139	1.425245	-0.589142	-0.176037	1.414845	-0.753655	-0.217214	1.404229	-0.410623	-0.130189	1.380695	-0.576258	-0.112254	0.980374	-0.457615	-0.100812	0.976931	-0.676201	-0.181993	1.024316	-0.425583	-0.149352	1.030484	-0.711206	-0.274342	1.015979	-0.521977	-0.266584	1.015530	-0.627228	-0.271852	1.022982	-0.577484	-0.239849	0.786669	-0.403833	-0.224606	0.728964	-0.399357	-0.163136	0.742569	-0.382876	-0.170935	0.803746	-0.383800	-0.269636	0.377240	-0.387068	-0.279702	0.336033	-0.393225	-0.219729	0.327466	-0.386907	-0.213289	0.367417	-0.385600	-0.342390	0.114908	-0.443770	-0.217848	0.031057	-0.375598	-0.172787	0.037116	-0.447748	-0.149503	0.028882	-0.449099	-0.202174	0.760829	-0.750777	-0.177008	0.704652	-0.749674	-0.115687	0.725919	-0.743711	-0.133483	0.782984	-0.744942	-0.277392	0.355652	-0.761008	-0.292585	0.317932	-0.759922	-0.232139	0.300748	-0.759481	-0.224432	0.344017	-0.760647	-0.363565	0.115040	-0.725860	-0.232229	0.033520	-0.776752	-0.198503	0.037606	-0.705259	-0.176632	0.028246	-0.705277	
127	0.6350	-0.258882	1.428366	-0.589213	-0.175990	1.418852	-0.753218	-0.217750	1.408522	-0.411216	-0.130455	1.384973	-0.576269	-0.111823	0.983802	-0.457412	-0.100542	0.980164	-0.675982	-0.181124	1.028245	-0.425517	-0.149009	1.034551	-0.710712	-0.273506	1.020063	-0.521638	-0.265855	1.019519	-0.626969	-0.271174	1.026986	-0.577146	-0.239806	0.790410	-0.403131	-0.224753	0.732647	-0.398514	-0.163277	0.746063	-0.382026	-0.170835	0.807272	-0.383139	-0.269661	0.380045	-0.386632	-0.279429	0.338690	-0.392724	-0.219436	0.330534	-0.386038	-0.213264	0.370536	-0.384792	-0.340418	0.117760	-0.443227	-0.216940	0.032050	-0.376068	-0.172264	0.037574	-0.447426	-0.149353	0.029153	-0.448571	-0.202300	0.764776	-0.750977	-0.177385	0.708487	-0.750085	-0.115961	0.729456	-0.744133	-0.133506	0.786606	-0.745119	-0.277323	0.358276	-0.761406	-0.292227	0.320443	-0.760283	-0.231649	0.303718	-0.760202	-0.224267	0.347040	-0.761359	-0.361493	0.117718	-0.726238	-0.231431	0.034221	-0.776387	-0.198076	0.037882	-0.705362	-0.176458	0.028431	-0.705506	
128	0.6400	-0.258564	1.431342	-0.589273	-0.175867	1.422649	-0.752734	-0.218188	1.412640	-0.411829	-0.130713	1.389047	-0.576257	-0.111453	0.987039	-0.457202	-0.100337	0.983220	-0.675739	-0.180286	1.032013	-0.425463	-0.148678	1.038457	-0.710243	-0.272722	1.024002	-0.521301	-0.265188	1.023376	-0.626693	-0.270560	1.030856	-0.576829	-0.239783	0.793981	-0.402447	-0.224881	0.736152	-0.397699	-0.163438	0.749408	-0.381164	-0.170761	0.810647	-0.382500	-0.269591	0.382645	-0.386199	-0.279071	0.341178	-0.392230	-0.219051	0.333415	-0.385236	-0.213141	0.373460	-0.384028	-0.338521	0.120455	-0.442650	-0.216009	0.033117	-0.376522	-0.171651	0.038139	-0.446935	-0.149094	0.029515	-0.447802	-0.202553	0.768604	-0.751103	-0.177877	0.712208	-0.750472	-0.116345	0.732888	-0.744604	-0.133654	0.790118	-0.745307	-0.277094	0.360688	-0.761821	-0.291728	0.322752	-0.760672	-0.231025	0.306467	-0.760862	-0.223951	0.349835	-0.762011	-0.359497	0.120224	-0.726754	-0.230579	0.035002	-0.776001	-0.197603	0.038226	-0.705532	-0.176215	0.028671	-0.705846	
129	0.6450	-0.258190	1.434172	-0.589337	-0.175658	1.426211	-0.752215	-0.218509	1.416549	-0.412455	-0.130947	1.392883	-0.576225	-0.111144	0.990071	-0.457002	-0.100199	0.986086	-0.675476	-0.179497	1.035606	-0.425421	-0.148362	1.042166	-0.709815	-0.272001	1.027784	-0.520967	-0.264587	1.027077	-0.626402	-0.270022	1.034568	-0.576539	-0.239788	0.797353	-0.401790	-0.225020	0.739451	-0.396897	-0.163611	0.752568	-0.380310	-0.170717	0.813846	-0.381888	-0.269410	0.385022	-0.385753	-0.278628	0.343485	-0.391740	-0.218578	0.336087	-0.384510	-0.212914	0.376170	-0.383321	-0.336727	0.122953	-0.442046	-0.215053	0.034249	-0.376913	-0.170919	0.038860	-0.446267	-0.148697	0.030006	-0.446751	-0.202914	0.772275	-0.751162	-0.178465	0.715778	-0.750825	-0.116826	0.736188	-0.745105	-0.133917	0.793493	-0.745502	-0.276693	0.362894	-0.762258	-0.291086	0.324873	-0.761101	-0.230276	0.308964	-0.761447	-0.223478	0.352381	-0.762588	-0.357629	0.122545	-0.727417	-0.229677	0.035877	-0.775627	-0.197082	0.038665	-0.705778	-0.175893	0.028980	-0.706312	
130	0.6500	-0.257762	1.436843	-0.589420	-0.175357	1.429512	-0.751673	-0.218708	1.420217	-0.413094	-0.131152	1.396446	-0.576173	-0.110874	0.992863	-0.456823	-0.100131	0.988744	-0.675199	-0.178764	1.038989	-0.425396	-0.148066	1.045644	-0.709434	-0.271320	1.031371	-0.520659	-0.264060	1.030599	-0.626106	-0.269536	1.038099	-0.576276	-0.239822	0.800490	-0.401160	-0.225191	0.742533	-0.396088	-0.163799	0.755525	-0.379487	-0.170707	0.816835	-0.381304	-0.269121	0.387201	-0.385316	-0.278108	0.345611	-0.391249	-0.218034	0.338535	-0.383860	-0.212589	0.378656	-0.382678	-0.335033	0.125210	-0.441446	-0.214054	0.035451	-0.377192	-0.170013	0.039751	-0.445436	-0.148114	0.030680	-0.445408	-0.203368	0.775757	-0.751153	-0.179122	0.719165	-0.751134	-0.117382	0.739336	-0.745613	-0.134275	0.796702	-0.745702	-0.276118	0.364894	-0.762729	-0.290311	0.326791	-0.761579	-0.229410	0.311207	-0.761952	-0.222846	0.354664	-0.763083	-0.355918	0.124673	-0.728220	-0.228734	0.036853	-0.775301	-0.196501	0.039225	-0.706103	-0.175473	0.029387	-0.706906	
131	0.6550	-0.257275	1.439331	-0.589489	-0.174960	1.432538	-0.751122	-0.218778	1.423599	-0.413794	-0.131272	1.399723	-0.576110	-0.110638	0.995402	-0.456679	-0.100134	0.991182	-0.674911	-0.178088	1.042133	-0.425387	-0.147795	1.048856	-0.709096	-0.270730	1.034755	-0.520358	-0.263603	1.033918	-0.625838	-0.269137	1.041440	-0.576038	-0.239885	0.803367	-0.400560	-0.225394	0.745367	-0.395298	-0.164000	0.758252	-0.378703	-0.170736	0.819598	-0.380760	-0.268731	0.389194	-0.384839	-0.277525	0.347553	-0.390757	-0.217427	0.340756	-0.383281	-0.212174	0.380910	-0.382103	-0.333450	0.127191	-0.440880	-0.212987	0.036721	-0.377316	-0.168918	0.040836	-0.444451	-0.147301	0.031555	-0.443823	-0.203894	0.779003	-0.751083	-0.179822	0.722332	-0.751387	-0.117991	0.742303	-0.746109	-0.134708	0.799724	-0.745899	-0.275374	0.366690	-0.763234	-0.289412	0.328522	-0.762119	-0.228444	0.313185	-0.762373	-0.222058	0.356674	-0.763483	-0.354392	0.126604	-0.729140	-0.227743	0.037941	-0.775069	-0.195824	0.039949	-0.706519	-0.174927	0.029942	-0.707618	
132	0.6600	-0.256728	1.441615	-0.589522	-0.174471	1.435270	-0.750574	-0.218729	1.426705	-0.414491	-0.131220	1.402700	-0.576058	-0.110438	0.997679	-0.456580	-0.100210	0.993393	-0.674621	-0.177484	1.045019	-0.425387	-0.147555	1.051772	-0.708800	-0.270207	1.037913	-0.520080	-0.263216	1.037024	-0.625602	-0.268799	1.044551	-0.575819	-0.239984	0.805955	-0.399986	-0.225610	0.747932	-0.394542	-0.164206	0.760730	-0.377974	-0.170801	0.822100	-0.380254	-0.268257	0.391007	-0.384322	-0.276896	0.349317	-0.390268	-0.216777	0.342743	-0.382774	-0.211677	0.382915	-0.381595	-0.331972	0.128892	-0.440397	-0.211803	0.038097	-0.377270	-0.167619	0.042137	-0.443355	-0.146236	0.032676	-0.442071	-0.204467	0.781982	-0.750959	-0.180538	0.725251	-0.751584	-0.118627	0.745059	-0.746572	-0.135200	0.802519	-0.746080	-0.274464	0.368300	-0.763781	-0.288402	0.330083	-0.762717	-0.227387	0.314911	-0.762717	-0.221124	0.358422	-0.763802	-0.353059	0.128317	-0.730126	-0.226688	0.039146	-0.774970	-0.195039	0.040866	-0.707013	-0.174236	0.030688	-0.708425	
133	0.6650	-0.256134	1.443684	-0.589532	-0.173894	1.437698	-0.750044	-0.218569	1.429523	-0.415104	-0.131035	1.405348	-0.576008	-0.110274	0.999687	-0.456527	-0.100359	0.995363	-0.674337	-0.176954	1.047626	-0.425390	-0.147354	1.054358	-0.708543	-0.269760	1.040842	-0.519825	-0.262903	1.039896	-0.625390	-0.268530	1.047421	-0.575623	-0.240111	0.808238	-0.399452	-0.225826	0.750195	-0.393852	-0.164409	0.762941	-0.377313	-0.170905	0.824327	-0.379783	-0.267713	0.392627	-0.383770	-0.276235	0.350895	-0.389783	-0.216098	0.344496	-0.382333	-0.211115	0.384695	-0.381155	-0.330578	0.130284	-0.440006	-0.210480	0.039588	-0.377043	-0.166127	0.043641	-0.442194	-0.144914	0.034060	-0.440267	-0.205061	0.784653	-0.750794	-0.181238	0.727878	-0.751717	-0.119266	0.747568	-0.746982	-0.135728	0.805058	-0.746234	-0.273411	0.369727	-0.764363	-0.287300	0.331481	-0.763371	-0.226270	0.316387	-0.762982	-0.220063	0.359909	-0.764040	-0.351914	0.129795	-0.731136	-0.225558	0.040467	-0.775031	-0.194136	0.041989	-0.707569	-0.173386	0.031663	-0.709274	
